<svg version="1" xmlns="http://www.w3.org/2000/svg" width="933.333" height="933.333" viewBox="0 0 700.000000 700.000000"><path d="M414.1 84.6c-9.2 1.6-23.7 8.6-30.9 14.9-10.2 9.1-17.4 20.7-21.1 34.3-2.4 8.9-2.2 25.6.4 34.2 2 6.8 8.4 20 9.6 20 .5 0 .9.6.9 1.3 0 .7 3.4 4.5 7.5 8.5 5.6 5.3 9.9 8.3 16.8 11.6 5 2.5 10.3 4.8 11.7 5 1.4.3 3.6.8 5 1.1 1.4.3 6.3.7 11 .9 24.9.9 48.8-13.1 60.4-35.4 5.5-10.6 7.5-18.6 7.5-31 0-18.9-6.6-34.7-19.6-47.3-16-15.5-37-21.9-59.2-18.1zm26.5 14.9c16 4.6 28.7 16 35 31.5 2.3 5.4 2.7 8.3 3 17.5.2 9.5-.1 12-2.1 17.9-13.3 38.4-62 48.5-89 18.3C376 172 371.4 152.5 376 136c5.2-18.8 23.3-35.2 41.5-37.6 2.2-.3 4.1-.6 4.2-.8.9-.8 14.1.5 18.9 1.9z"/><path d="M417.5 111.1c-17.5 4.1-30.6 20.6-30.6 38.3 0 8.3.7 11.1 4.1 18.1 15.5 32 62 28.8 73.5-5.1 7-20.5-5.3-44.5-26-50.6-4.7-1.4-16.6-1.8-21-.7zM107.6 137c.9 4.6 3.2 20.4 3.9 27.3.3 3.7.8 7.6 1 8.6.2 1 .6 5.6.9 10.2.4 4.6.9 10.9 1.1 13.9.8 8.9 1.4 15.1 2 21 .3 3 .7 8.2 1 11.5.5 5.8.7 7.4 2.1 17.5.4 2.5.8 5.4.9 6.5 1.3 9.5 6.3 29.7 10.9 43.5 11.3 34.6 31 65.7 53.6 84.5 10.7 8.9 26.6 17.1 37 19 1.4.3 3.6.8 5 1.1 5.8 1.4 24.1 1.3 32.2-.2 14.4-2.7 30.2-10.8 40.7-20.7 3.4-3.2 4.3-3.6 5.9-2.6 2.8 1.8 12 14.6 15.7 21.9 3.9 7.9 9.3 24.2 11.1 33.5.2 1.1.8 4.2 1.4 7 1.7 8.9 3.2 19.3 4.5 31.2.3 2.9.8 7.5 1.1 10.2.6 5.6 1 11.5 1.9 28.2l.7 11.6-6.9-3.3c-12.1-6-21.3-7.7-41.8-7.8-20.3-.1-29.9.6-45 3.4-2.7.5-6.7 1.2-8.8 1.5-4.2.6-14.5 2.7-24.6 5.2-3.6.8-7.3 1.7-8.3 1.9-18.8 4.2-21.3 5.4-52.4 24.1-16.4 9.9-38.7 23.3-49.4 29.8-10.7 6.4-19.9 12.1-20.4 12.5-1 1 21.3 27 22.8 26.5.6-.2 2.5-.6 4.1-.8 1.7-.3 6.8-1.2 11.5-2.1 4.7-.8 9.9-1.8 11.5-2.1 1.7-.3 4.4-.7 6-1 7.6-1.4 14.3-2.5 18-3 2.2-.3 5.1-.8 6.5-1 3.8-.7 13.6-2.1 27.5-4 4.5-.6 20.3-2.5 25.8-3 11.7-1.2 14.8-1.5 24.7-2.1 29.6-1.7 53.5-.2 71.4 4.7 6.8 1.8 8.6 3 8.6 5.7 0 1.9 8.5 6.9 14.3 8.3 7.4 1.8 21.1 1.6 28.1-.5 6.1-1.8 12.6-6.9 12.6-9.9 0-1.4 7.1-4.2 13.5-5.2 1.1-.2 4.7-.9 8-1.4 7.5-1.4 22.2-2.4 33.5-2.4 9.9 0 35.6 1.1 38.5 1.7 1.1.2 5.8.7 10.5 1.1 4.7.4 8.7.8 9 1 .3.2 3.9.6 8 1s8.3.9 9.3 1.1c1 .1 7 1 13.5 1.9 6.4.9 12.8 1.8 14.2 2.1 1.4.3 3.9.7 5.5.9 9.8 1.5 36.8 6.2 44.9 7.9 7.7 1.6 6.6 2.1 14.3-6.7 11.3-12.6 15.3-17.8 14.8-18.7-.4-.6-2.2-1.8-4.1-2.8-1.9-.9-24.4-14.4-50.2-29.9l-46.7-28.2-13.5-3.5c-7.4-1.9-14.6-3.7-16-4-1.4-.2-6.7-1.4-11.8-2.5-5.1-1.2-11-2.4-13-2.6-2-.3-4.6-.8-5.8-1-3-.7-15.9-2.5-22.9-3.3-8.2-.9-34.5-.9-42.6 0-10.9 1.3-25.2 6.3-30.3 10.7-1.8 1.6-1.9 1.3-1.3-8.4.4-5.5.9-11.1 1.2-12.5.2-1.4.7-4.3 1-6.5.8-7.1 4.4-19.6 7.2-25.3 4-8 15.9-19.7 26.3-25.7 4.7-2.8 9-5.2 9.5-5.4 1.6-.7 19.7-14.7 23.9-18.6 3.4-3.1 4.1-3.4 5.5-2.1 2.4 2.1 11.8 6.6 16.9 8.1 6.4 2 19.4 1.3 26-1.3 23.7-9.2 40-36.6 44-73.7 1-9.9.3-45.6-1.3-61-.2-1.7-.4-6.8-.4-11.5-.2-8.3-.2-8.4-1.9-6.2-22.6 30.7-35.7 42-55.6 47.7-20.8 6.1-28 9.7-36.3 18.2-15.8 16.2-18.2 44.5-5.6 64.6l2.4 3.9-2.8 2.5c-8.7 7.8-18.9 15.2-29.7 21.5-14.2 8.4-27 20.4-32.3 30.3-1.8 3.3-3.3 5.3-3.3 4.5 0-1.7-2.6-19.7-3.5-24.8-2.7-15.8-7.8-33.6-12.6-44-3.2-7.1-10.3-18.2-14.6-22.8-1.5-1.7-3.9-4.2-5.2-5.7l-2.3-2.6 2.5-3.3c1.4-1.8 3.5-5.1 4.7-7.3 2.3-4 7.2-17.5 6.5-17.5-.3 0 0-1.1.5-2.5.5-1.3 1.2-5 1.6-8.2 3.9-34.8-4.7-63.6-25.6-85.6-19.7-20.8-34.8-26.2-90.6-32.1-23.7-2.5-56-24.2-98.1-65.9-6.4-6.3-8.1-7.6-7.7-5.7z"/></svg>