<?xml version="1.0" encoding="UTF-8" standalone="no"?>
<!DOCTYPE svg PUBLIC "-//W3C//DTD SVG 1.1//EN" "http://www.w3.org/Graphics/SVG/1.1/DTD/svg11.dtd">
<svg width="100%" height="100%" viewBox="0 0 512 512" version="1.1" xmlns="http://www.w3.org/2000/svg" xmlns:xlink="http://www.w3.org/1999/xlink" xml:space="preserve" xmlns:serif="http://www.serif.com/" style="fill-rule:evenodd;clip-rule:evenodd;stroke-linejoin:round;stroke-miterlimit:2;">
    <g id="BookSeedlingBlack">
        <g id="Book">
            <path d="M256.003,387.229c13.401,-15.822 46.294,-21.58 120.734,-0.766l74.263,44.779c-28.999,-5.443 -170.531,-33.377 -195,-4.487c-24.469,-28.89 -166.001,-0.956 -195,4.487l74.263,-44.779c74.44,-20.814 107.339,-15.056 120.74,0.766Z" style="fill:url(#_Linear1);"/>
            <path d="M451,431.242c-28.999,-11.283 -170.531,-69.187 -195,-9.302c-24.469,-59.885 -166.001,-1.981 -195,9.302l16.626,18.978c72.819,-13.38 127.445,-20.01 157.878,-8.955c0.599,12.33 40.32,13.614 40.992,0c30.433,-11.055 85.059,-4.425 157.878,8.955l16.626,-18.978" style="fill:url(#_Linear2);"/>
        </g>
        <g id="Seedling">
            <path d="M261.194,392.218c-4.516,-119.525 -23.256,-116.109 -56.575,-145.154c-46.192,-40.268 -60.554,-48.329 -87.692,-76.377c-1.995,-2.061 -5.288,-2.116 -7.35,-0.121c-2.061,1.995 -2.116,5.288 -0.121,7.35c27.343,28.26 41.79,36.411 88.332,76.984c31.785,27.708 48.709,23.688 53.018,137.71c0.108,2.867 5.194,6.548 5.194,6.548c-0,0 5.303,-4.074 5.194,-6.94Z" style="fill:url(#_Linear3);"/>
            <path d="M78.172,98.039c10.941,11.556 50.206,51.941 78.29,54.611c39.084,3.717 51.455,7.931 66.685,23.979c24.652,25.974 21.302,67.769 10.694,84.45c-23.681,37.239 -56.881,36.862 -76.479,30.499c-27.558,-8.947 -60.541,-45.093 -70.227,-112.817c-2.23,-15.588 -4.937,-66.728 -8.963,-80.722Z" style="fill:url(#_Linear4);"/>
            <path d="M340.688,259.026c-0.344,0.549 -1.729,2.727 -3.219,4.686c-10.181,13.38 -34.039,41.2 -55.491,51.906c-7.651,3.819 -17.817,13.072 -22.588,21.947c-6.786,12.625 -10.086,39.873 -8.535,55.387c0.285,2.855 5.145,6.206 5.145,6.206c0,0 5.485,-4.385 5.199,-7.24c-1.343,-13.438 1.469,-38.496 7.348,-49.431c3.673,-6.833 12.183,-14.627 18.073,-17.567c22.711,-11.335 48.344,-40.748 59.122,-54.913c2.471,-3.247 4.032,-5.73 4.583,-7.017c0.49,-1.143 0.598,-2.066 0.598,-2.677c-0,-2.869 -2.33,-5.198 -5.198,-5.198c-2.425,-0 -4.464,1.664 -5.037,3.911Z" style="fill:url(#_Linear5);"/>
            <path d="M378.253,196.592c-0,0 -19.957,31.635 -38.883,36.319c-13.127,3.25 -24.743,6.878 -32.708,17.26c-12.003,15.646 -7.944,39.722 4.655,51.377c15.529,14.365 32.783,13.142 45.927,3.263c12.807,-9.625 20.608,-29.999 22.398,-50.383c1.642,-18.701 -2.499,-49.296 -1.389,-57.836Z" style="fill:url(#_Linear6);"/>
        </g>
        <g id="Sun">
            <path d="M312.065,61c26.906,0 48.75,21.844 48.75,48.75c-0,26.906 -21.844,48.75 -48.75,48.75c-26.906,0 -48.75,-21.844 -48.75,-48.75c-0,-26.906 21.844,-48.75 48.75,-48.75Zm-0,10.263c21.241,0 38.487,17.246 38.487,38.487c-0,21.241 -17.246,38.487 -38.487,38.487c-21.241,-0 -38.487,-17.246 -38.487,-38.487c0,-21.241 17.246,-38.487 38.487,-38.487Z" style="fill:url(#_Linear7);"/>
            <circle cx="312.065" cy="109.75" r="29.25" style="fill:url(#_Linear8);"/>
        </g>
    </g>
    <defs>
        <linearGradient id="_Linear1" x1="0" y1="0" x2="1" y2="0" gradientUnits="userSpaceOnUse" gradientTransform="matrix(2.38806e-14,390,-390,2.38806e-14,248.069,61)"><stop offset="0" style="stop-color:#19d2fe;stop-opacity:1"/><stop offset="1" style="stop-color:#1e64f0;stop-opacity:1"/></linearGradient>
        <linearGradient id="_Linear2" x1="0" y1="0" x2="1" y2="0" gradientUnits="userSpaceOnUse" gradientTransform="matrix(2.38806e-14,390,-390,2.38806e-14,248.069,61)"><stop offset="0" style="stop-color:#19d2fe;stop-opacity:1"/><stop offset="1" style="stop-color:#1e64f0;stop-opacity:1"/></linearGradient>
        <linearGradient id="_Linear3" x1="0" y1="0" x2="1" y2="0" gradientUnits="userSpaceOnUse" gradientTransform="matrix(2.38806e-14,390,-390,2.38806e-14,248.069,61)"><stop offset="0" style="stop-color:#19d2fe;stop-opacity:1"/><stop offset="1" style="stop-color:#1e64f0;stop-opacity:1"/></linearGradient>
        <linearGradient id="_Linear4" x1="0" y1="0" x2="1" y2="0" gradientUnits="userSpaceOnUse" gradientTransform="matrix(2.38806e-14,390,-390,2.38806e-14,248.069,61)"><stop offset="0" style="stop-color:#19d2fe;stop-opacity:1"/><stop offset="1" style="stop-color:#1e64f0;stop-opacity:1"/></linearGradient>
        <linearGradient id="_Linear5" x1="0" y1="0" x2="1" y2="0" gradientUnits="userSpaceOnUse" gradientTransform="matrix(2.38806e-14,390,-390,2.38806e-14,248.069,61)"><stop offset="0" style="stop-color:#19d2fe;stop-opacity:1"/><stop offset="1" style="stop-color:#1e64f0;stop-opacity:1"/></linearGradient>
        <linearGradient id="_Linear6" x1="0" y1="0" x2="1" y2="0" gradientUnits="userSpaceOnUse" gradientTransform="matrix(2.38806e-14,390,-390,2.38806e-14,248.069,61)"><stop offset="0" style="stop-color:#19d2fe;stop-opacity:1"/><stop offset="1" style="stop-color:#1e64f0;stop-opacity:1"/></linearGradient>
        <linearGradient id="_Linear7" x1="0" y1="0" x2="1" y2="0" gradientUnits="userSpaceOnUse" gradientTransform="matrix(2.38806e-14,390,-390,2.38806e-14,248.069,61)"><stop offset="0" style="stop-color:#19d2fe;stop-opacity:1"/><stop offset="1" style="stop-color:#1e64f0;stop-opacity:1"/></linearGradient>
        <linearGradient id="_Linear8" x1="0" y1="0" x2="1" y2="0" gradientUnits="userSpaceOnUse" gradientTransform="matrix(2.38806e-14,390,-390,2.38806e-14,248.069,61)"><stop offset="0" style="stop-color:#19d2fe;stop-opacity:1"/><stop offset="1" style="stop-color:#1e64f0;stop-opacity:1"/></linearGradient>
    </defs>
</svg>
