<svg viewBox="0 0 512 512" xmlns="http://www.w3.org/2000/svg" xmlns:xlink="http://www.w3.org/1999/xlink" fill-rule="evenodd" clip-rule="evenodd" stroke-linecap="round" stroke-linejoin="round" stroke-miterlimit="1.5">
  <path d="M0 0h512v512H0z" fill="url('#_gradient')"/>
  <path d="M153.207 344.592c15.288-4.45 89.887-27.286 102.79-3.67 12.891-23.616 87.5-.78 102.788 3.67l84.89 88.422c-27.904-8.126-164.127-49.822-187.679-6.703-23.552-43.12-159.775-1.423-187.679 6.703l84.89-88.422" fill="#fff"/>
  <path d="M443.675 433.014c-27.904-10.63-164.127-65.176-187.679-8.769-23.552-56.407-159.775-1.862-187.679 8.769l15.995 17.875c70.093-12.606 122.665-18.847 151.962-8.431.573 11.613 38.8 12.82 39.444 0 29.297-10.416 81.87-4.175 151.952 8.43l16.005-17.874"/>
  <path d="M822.201 507.132c0-27.953 16.403-66.857 36.421-84.207 28.513-24.714 37.371-29.67 54.122-46.884" fill="none" stroke="#000" stroke-width="5.45" transform="matrix(-1.56512 0 0 1.56385 1545.185 -424.832)"/>
  <path d="M862.859 392.844c-4.412 10.615-5.906 20.868-4.237 30.081 7.41 3.255 15.713 4.901 25.461 3.947" fill="none" stroke="#000" stroke-width="5.45" transform="matrix(-1.56512 0 0 1.56385 1545.185 -424.832)"/>
  <path d="M886.889 382.846c-2.651 5.941-3.957 13.227-3.802 21.975 8.507 4.397 16.109 2.219 22.746 1.002" fill="none" stroke="#000" stroke-width="5.45" transform="matrix(-1.56512 0 0 1.56385 1547.233 -426.878)"/>
  <path d="M82.923 90.321s44.835 50.948 81.113 52.7c32.528 1.573 51.92 11.72 64.25 28.987 19.958 27.95 11.076 67.036-1.303 81.366-27.636 31.994-57.25 28.302-77.033 18.39-23.154-11.601-53.475-46.343-60.293-119.73-1.392-14.98-3.985-56.507-6.734-61.713z" fill="#fff"/>
  <path d="M829.427 464.516c0-14.916-3.295-20.75-13.703-25.915-16.974-8.422-40.025-35.807-40.025-38.035" fill="none" stroke="#000" stroke-width="5.45" transform="matrix(-1.56512 0 0 1.56385 1554.497 -380.944)"/>
  <path d="M371.826 184.555s-20.12 31.39-39.679 35.35c-17.537 3.552-27.227 10.671-32.49 21.072-8.518 16.836-.448 37.329 7.466 44.086 17.668 15.085 33.447 10.624 43.368 3.6 11.613-8.221 25.195-29.606 22.804-70.03-.49-8.252-2.53-31.023-1.469-34.078z" fill="#fff"/>
  <g>
    <circle cx="400.553" cy="282.391" r="20.298" fill="none" stroke="#fff" stroke-width="4.23" transform="matrix(2.01907 0 0 2.01744 -501.437 -468.378)"/>
    <circle cx="400.553" cy="282.391" r="20.298" fill="#fff" stroke="#fff" stroke-width="6.91" transform="matrix(1.26121 0 0 1.26019 -197.87 -254.536)"/>
  </g>
  <defs>
    <linearGradient id="_gradient" x1="0%" x2="0%" y1="0%" y2="100%">
      <stop offset="0%" stop-color="#19D2FE" />
      <stop offset="100%" stop-color="#1E64F0" />
    </linearGradient>
  </defs>
</svg>
