<?xml version="1.0" encoding="UTF-8" standalone="no"?>
<!DOCTYPE svg PUBLIC "-//W3C//DTD SVG 1.1//EN" "http://www.w3.org/Graphics/SVG/1.1/DTD/svg11.dtd">
<svg width="100%" height="100%" viewBox="0 0 1074 1614" version="1.1" xmlns="http://www.w3.org/2000/svg" xmlns:xlink="http://www.w3.org/1999/xlink" xml:space="preserve" xmlns:serif="http://www.serif.com/" style="fill-rule:evenodd;clip-rule:evenodd;stroke-linecap:round;stroke-linejoin:round;stroke-miterlimit:1.5;">
    <path d="M387.764,0.01l-337.525,12.268c-33.726,1.128 -57.613,30.977 -48.154,83.832l145.37,874.85c7.962,37.027 41.815,58.722 78.618,51.74l358.09,-74.686c20.116,-4.165 45.833,-31.507 37.579,-71.143l-174.18,-823.177c-6.76,-37.507 -36.461,-54.169 -59.798,-53.684Z"/>
    <path d="M388.125,5.914l-339.558,12.776c-24.76,3.032 -38.792,25.78 -31.812,61.107l148.711,883.839c7.548,36.441 28.453,54.571 67.952,47.211l350.663,-73.527c28.24,-10.932 37.341,-34.913 28.34,-71.236l-170.974,-808.024c-6.409,-36.913 -25.119,-52.686 -53.322,-52.146Z" style="fill:#3a3a3a;"/>
    <path d="M32.778,128.685l413.542,-25.634l154.877,739.688l-432.499,78.21l-135.92,-792.264Z" style="fill:#fff;"/>
    <path d="M211.71,51.877c-4.617,0.295 -5.024,9.028 0.17,9.011l45.748,-2.084c3.813,-0.572 3.131,-8.031 -0.795,-7.993l-45.123,1.066Z"/>
    <ellipse cx="292.904" cy="54.32" rx="9.453" ry="8.711"/>
    <ellipse cx="324.817" cy="53.112" rx="9.453" ry="8.711"/>
    <path d="M168.698,920.949l-25.88,-152.338l428.737,-67.439l29.642,141.567l-432.499,78.21Z" style="fill:#fff;"/>
    <path d="M142.818,768.611l-1.209,-7.119l428.67,-66.418l1.276,6.098l-428.737,67.439Z" style="fill:#f6f6f6;"/>
    <path d="M479.401,847.819c13.398,-2.26 19.427,-13.399 21.489,-26.26c0.741,-4.728 1.346,-9.786 7.05,-17.358c10.4,-13.824 13.474,-28.12 11.293,-41.255c-3.638,-21.908 -24.892,-35.395 -45.207,-31.967c-24.08,4.063 -39.04,26.829 -21.957,55.562l10.086,-5.39c-13.612,-23.581 -0.833,-36.061 14.089,-38.852c12.946,-2.426 26.437,6.297 30.112,18.522c3.205,10.666 2.338,24.37 -7.168,36.255c-8.24,10.297 -8.603,16.256 -9.428,22.235c-1.903,13.787 -7.994,16.886 -12.626,17.378c-10.836,1.149 -17.249,-8.569 -9.103,-22.222l-11.049,-3.621c-3.62,7.242 -4.643,14.549 -3.781,19.986c2.029,12.77 14.274,19 26.2,16.987Zm-6.018,-46.292c7.483,2.243 12.925,-3.728 14.704,-10.21c1.704,-6.18 -0.998,-12.473 -7.195,-16.844c-4.267,-3.01 -7.024,-7.009 -6.804,-10.45c0.075,-1.308 0.605,-3.126 2.632,-4.319c2.03,-1.204 4.322,-1.323 6.291,-0.687c3.162,1.019 6.087,4.299 7.614,8.558l8.034,-2.694c-2.366,-6.58 -7.118,-11.58 -12.721,-13.375c-4.427,-1.42 -9.347,-1.002 -13.598,1.508c-3.99,2.354 -6.43,6.272 -6.713,10.751c-0.38,6.139 3.51,12.467 10.076,17.097c-11.047,4.614 -10.312,17.742 -2.32,20.665Zm-51.015,-6.121l-1.646,-9.913l25.682,12.628l-20.202,20.37l-1.646,-9.913l-19.808,3.342l-2.187,-13.172l19.807,-3.342Z" style="fill:#1976d2;"/>
    <path d="M261.328,767.147l-53.987,71.295l19.345,-3.276l9.116,53.133l32.21,-5.383l-6.858,-39.847l25.746,-4.284l6.883,39.815l32.165,-5.391l-9.11,-53.099l19.334,-3.252l-74.844,-49.711Z" style="fill:#bdbdbd;"/>
    <g>
        <path d="M1071.35,959.002c0,0 -59.388,-40.282 -93.218,-64.467c-19.835,-16.721 -37.67,-32.916 -54.7,-42.027c-16.83,-9.003 -33.471,-12.026 -48.26,-17.227c-60.833,-19.589 -89.363,-32.101 -120.911,-53.152c-24.678,-18.516 -49.872,-34.966 -76.269,-46.606c-19.205,-9.915 -37.954,-20.191 -64.162,-24.539c-27.118,-15.606 -46.045,-17.56 -60.274,-11.685c-11.551,9.591 -11.386,25.211 -7.037,36.521c-2.293,31.515 12.576,52.734 33.924,70.065c47.007,38.293 85.862,66.101 118.263,81.626c22.308,15.148 42.58,26.708 62.034,39.281c30.103,19.456 56.227,37.075 69.246,41.113c8.661,10.279 22.354,18.821 34.116,29.664c12.725,11.729 22.1,21.122 37.051,35.233c-41.927,-3.369 -82.193,-7.108 -120.253,-11.336c-36.849,4.375 -59.753,17.118 -70.826,36.959c-14.034,14.158 -18.744,39.817 -9.153,75.036c-30.69,2.511 -52.983,13.006 -65.725,32.585c-13.833,19.595 -18.158,43.551 -10.876,66.137c-18.36,8.465 -30.701,24.813 -33.444,53.734c-1.463,31.429 10.352,68.893 16.466,142.471c2.157,10.196 62.608,96.208 87.368,116.873c28.224,29.56 48.757,30.088 64.219,19.031c13.369,-4.24 19.588,-17.438 21.615,-47.109c10.702,13.892 103.266,94.164 103.266,94.164" style="fill:#fff;stroke:#000;stroke-width:4px;"/>
        <path d="M553.558,699.299c-9.471,7.463 -12.932,19.313 -7.037,36.521c5.424,11.406 23.656,21.25 43.246,30.929c11.803,1.869 21.362,1.697 29.385,0.129c22.067,-11.792 35.155,-21.588 38.664,-29.256c-11.574,-9.35 -29.882,-19.862 -51.423,-30.931c-21.027,-10.592 -38.761,-13.364 -52.835,-7.392" style="fill:#fff;stroke:#000;stroke-width:4px;"/>
    </g>
</svg>
