<svg xmlns="http://www.w3.org/2000/svg" fill-rule="evenodd" stroke-linejoin="round" stroke-miterlimit="2" clip-rule="evenodd" viewBox="0 0 24 24">
  <defs/>
  <path fill="#fff" d="M12.702 9.019l7.399-7.398 2.981 2.981L15.683 12l7.399 7.398-2.981 2.981-7.399-7.398-7.398 7.398-2.981-2.981L9.721 12 2.323 4.602l2.981-2.981 7.398 7.398z"/>
  <path fill="#fff" fill-rule="nonzero" d="M13.171 22c2.183 0 3.432-1.719 4.098-3.844.242-.782.471-1.624 1.574-2.746 2.013-2.05 2.877-4.39 2.877-6.684C21.72 4.9 18.705 2 15.394 2c-3.924 0-6.895 3.439-4.943 8.809l1.74-.627c-1.537-4.395.818-6.149 3.257-6.195 2.116-.041 4.025 1.827 4.286 4.009.227 1.904-.271 4.206-2.091 5.953-1.577 1.512-1.792 2.514-2.08 3.506-.664 2.287-1.712 2.639-2.459 2.59-1.748-.115-2.509-1.95-.858-4.035l-1.656-.932c-.765 1.126-1.119 2.338-1.126 3.286C9.45 20.591 11.227 22 13.171 22zm.264-8.035c1.127.595 2.147-.263 2.6-1.313.433-1.001.17-2.147-.697-3.067-.597-.634-.929-1.392-.804-1.97a.88.88 0 01.531-.658c.354-.147.72-.101 1.016.063.474.264.851.905.981 1.672l1.345-.227c-.202-1.185-.824-2.171-1.665-2.636a2.507 2.507 0 00-2.195-.134c-.694.285-1.2.899-1.347 1.634-.222 1.031.228 2.218 1.147 3.192-1.873.468-2.102 2.719-.912 3.444z"/>
</svg>
