<?xml version="1.0" encoding="UTF-8" standalone="no"?>
<!DOCTYPE svg PUBLIC "-//W3C//DTD SVG 1.1//EN" "http://www.w3.org/Graphics/SVG/1.1/DTD/svg11.dtd">
<svg width="100%" height="100%" viewBox="0 0 24 24" version="1.1" xmlns="http://www.w3.org/2000/svg" xmlns:xlink="http://www.w3.org/1999/xlink" xml:space="preserve" xmlns:serif="http://www.serif.com/" style="fill-rule:evenodd;clip-rule:evenodd;stroke-linejoin:round;stroke-miterlimit:2;">
    <path d="M10.092,5.763c0.709,-2.381 2.814,-3.763 5.302,-3.763c3.311,0 6.326,2.9 6.326,6.726c0,2.294 -0.864,4.634 -2.877,6.684c-1.103,1.122 -1.332,1.964 -1.574,2.746c-0.666,2.125 -1.915,3.844 -4.098,3.844c-1.944,0 -3.721,-1.409 -3.707,-3.636c0,-0.053 0.002,-0.107 0.005,-0.161c-3.131,-0.333 -5.574,-2.985 -5.574,-6.203c0,-3.429 2.773,-6.215 6.197,-6.237Zm1.241,12.359c-0.051,1.084 0.661,1.85 1.771,1.923c0.747,0.049 1.795,-0.303 2.459,-2.59c0.288,-0.992 0.503,-1.994 2.08,-3.506c1.82,-1.747 2.318,-4.049 2.091,-5.953c-0.261,-2.182 -2.17,-4.05 -4.286,-4.009c-1.44,0.027 -2.851,0.65 -3.449,2.06c0.507,0.159 0.986,0.38 1.427,0.656c0.243,-0.449 0.636,-0.809 1.121,-1.008c0.713,-0.296 1.524,-0.246 2.195,0.134c0.841,0.465 1.463,1.451 1.665,2.636l-1.345,0.227c-0.13,-0.767 -0.507,-1.408 -0.981,-1.672c-0.296,-0.164 -0.662,-0.21 -1.016,-0.063c-0.269,0.11 -0.465,0.347 -0.525,0.63c1.13,1.129 1.831,2.69 1.831,4.413c0,3.032 -2.169,5.562 -5.038,6.122Z" style="fill:#fff;fill-rule:nonzero;"/>
</svg>
