<svg xmlns="http://www.w3.org/2000/svg" fill-rule="evenodd" stroke-linejoin="round" stroke-miterlimit="2" clip-rule="evenodd" viewBox="0 0 24 24">
  <defs/>
  <path fill="#fff" fill-rule="nonzero" d="M6.667 10.237C5.122 5.196 8.019 2 11.802 2c3.311 0 6.326 2.9 6.326 6.726 0 .502-.041 1.007-.127 1.511h3.838v3.923h-5.525c-.31.426-.664.844-1.063 1.25-1.103 1.122-1.332 1.964-1.574 2.746C13.011 20.281 11.762 22 9.579 22c-1.944 0-3.721-1.409-3.707-3.636.007-.948.361-2.16 1.126-3.286l1.656.932c-1.651 2.085-.89 3.92.858 4.035.747.049 1.795-.303 2.459-2.59.274-.945.483-1.899 1.865-3.295H2.161v-3.923h4.506zm9.397 0c.147-.77.162-1.533.078-2.241-.261-2.182-2.17-4.05-4.286-4.009-2.439.046-4.794 1.8-3.257 6.195l-.151.055h2.057c-.749-.915-1.098-1.975-.897-2.908a2.243 2.243 0 011.347-1.634 2.507 2.507 0 012.195.134c.841.465 1.463 1.451 1.665 2.636l-1.345.227c-.13-.767-.507-1.408-.981-1.672a1.158 1.158 0 00-1.016-.063.88.88 0 00-.531.658c-.125.578.207 1.336.804 1.97.195.207.36.426.493.652h3.825z"/>
</svg>
