<?xml version="1.0" encoding="UTF-8" standalone="no"?>
<!DOCTYPE svg PUBLIC "-//W3C//DTD SVG 1.1//EN" "http://www.w3.org/Graphics/SVG/1.1/DTD/svg11.dtd">
<svg width="100%" height="100%" viewBox="0 0 24 24" version="1.1" xmlns="http://www.w3.org/2000/svg" xmlns:xlink="http://www.w3.org/1999/xlink" xml:space="preserve" xmlns:serif="http://www.serif.com/" style="fill-rule:evenodd;clip-rule:evenodd;stroke-linejoin:round;stroke-miterlimit:2;">
    <path d="M6.667,10.237c-1.545,-5.041 1.352,-8.237 5.135,-8.237c3.311,0 6.326,2.9 6.326,6.726c0,0.502 -0.041,1.007 -0.127,1.511l3.838,0l0,3.923l-5.525,0c-0.31,0.426 -0.664,0.844 -1.063,1.25c-1.103,1.122 -1.332,1.964 -1.574,2.746c-0.666,2.125 -1.915,3.844 -4.098,3.844c-1.944,0 -3.721,-1.409 -3.707,-3.636c0.007,-0.948 0.361,-2.16 1.126,-3.286l1.656,0.932c-1.651,2.085 -0.89,3.92 0.858,4.035c0.747,0.049 1.795,-0.303 2.459,-2.59c0.274,-0.945 0.483,-1.899 1.865,-3.295l-11.675,0l0,-3.923l4.506,0Zm9.397,0c0.147,-0.77 0.162,-1.533 0.078,-2.241c-0.261,-2.182 -2.17,-4.05 -4.286,-4.009c-2.439,0.046 -4.794,1.8 -3.257,6.195l-0.151,0.055l2.057,0c-0.749,-0.915 -1.098,-1.975 -0.897,-2.908c0.147,-0.735 0.653,-1.349 1.347,-1.634c0.713,-0.296 1.524,-0.246 2.195,0.134c0.841,0.465 1.463,1.451 1.665,2.636l-1.345,0.227c-0.13,-0.767 -0.507,-1.408 -0.981,-1.672c-0.296,-0.164 -0.662,-0.21 -1.016,-0.063c-0.278,0.114 -0.478,0.363 -0.531,0.658c-0.125,0.578 0.207,1.336 0.804,1.97c0.195,0.207 0.36,0.426 0.493,0.652l3.825,0Z" style="fill:#fff;fill-rule:nonzero;"/>
</svg>
