<svg viewBox="0 0 24 24" xmlns="http://www.w3.org/2000/svg" fill-rule="evenodd" clip-rule="evenodd" stroke-linejoin="round" stroke-miterlimit="2">
<path d="M13.142 22.818c2.402 0 3.776-1.89 4.508-4.229.266-.86.518-1.786 1.732-3.02 2.214-2.256 3.164-4.83 3.164-7.353 0-4.208-3.316-7.398-6.958-7.398-4.317 0-7.585 3.782-5.438 9.69l1.915-.69c-1.691-4.835.899-6.764 3.582-6.815 2.328-.045 4.428 2.01 4.715 4.41.25 2.094-.298 4.627-2.3 6.548-1.735 1.664-1.971 2.766-2.288 3.857-.731 2.516-1.883 2.903-2.705 2.85-1.923-.128-2.76-2.146-.944-4.44l-1.822-1.025c-.841 1.24-1.231 2.572-1.238 3.615-.016 2.45 1.939 4 4.077 4zm.29-8.839c1.24.655 2.363-.289 2.86-1.444.477-1.1.188-2.362-.766-3.374-.657-.697-1.022-1.53-.884-2.167.05-.242.196-.565.584-.724a1.273 1.273 0 011.117.07c.522.29.937.995 1.08 1.84l1.479-.25c-.222-1.305-.906-2.389-1.831-2.9a2.763 2.763 0 00-2.415-.148c-.764.314-1.303.97-1.482 1.797-.244 1.135.25 2.44 1.262 3.512-2.06.514-2.312 2.99-1.003 3.788zM4.714 11.227V9.323l4.113 3.17-4.113 3.168v-1.904H1.163v-2.53h3.55z"/>
</svg>
