<?xml version="1.0" encoding="UTF-8" standalone="no"?>
<!DOCTYPE svg PUBLIC "-//W3C//DTD SVG 1.1//EN" "http://www.w3.org/Graphics/SVG/1.1/DTD/svg11.dtd">
<svg width="100%" height="100%" viewBox="0 0 24 24" version="1.1" xmlns="http://www.w3.org/2000/svg" xmlns:xlink="http://www.w3.org/1999/xlink" xml:space="preserve" xmlns:serif="http://www.serif.com/" style="fill-rule:evenodd;clip-rule:evenodd;stroke-linejoin:round;stroke-miterlimit:2;">
    <path d="M13.171,22c-1.944,0 -3.721,-1.409 -3.707,-3.636c0.007,-0.948 0.361,-2.16 1.126,-3.286l1.656,0.932c-1.651,2.085 -0.89,3.92 0.858,4.035c0.747,0.049 1.795,-0.303 2.459,-2.59c0.288,-0.992 0.503,-1.994 2.08,-3.506c1.82,-1.747 2.318,-4.049 2.091,-5.953c-0.261,-2.182 -2.17,-4.05 -4.286,-4.009c-2.439,0.046 -4.794,1.8 -3.257,6.195l-1.74,0.627c-1.952,-5.37 1.019,-8.809 4.943,-8.809c3.311,0 6.326,2.9 6.326,6.726c0,2.294 -0.864,4.634 -2.877,6.684c-1.103,1.122 -1.332,1.964 -1.574,2.746c-0.666,2.125 -1.915,3.844 -4.098,3.844Zm-5.017,-20l-2.409,0l0,20l2.409,0l0,-20Zm-6.147,12.881l0,-5.762l3.738,2.881l-3.738,2.881Zm11.428,-0.916c-1.19,-0.725 -0.961,-2.976 0.912,-3.444c-0.919,-0.974 -1.369,-2.161 -1.147,-3.192c0.147,-0.735 0.653,-1.349 1.347,-1.634c0.713,-0.296 1.524,-0.246 2.195,0.134c0.841,0.465 1.463,1.451 1.665,2.636l-1.345,0.227c-0.13,-0.767 -0.507,-1.408 -0.981,-1.672c-0.296,-0.164 -0.662,-0.21 -1.016,-0.063c-0.278,0.114 -0.478,0.363 -0.531,0.658c-0.125,0.578 0.207,1.336 0.804,1.97c0.867,0.92 1.13,2.066 0.697,3.067c-0.453,1.05 -1.473,1.908 -2.6,1.313Z" style="fill:#fff;fill-rule:nonzero;"/>
</svg>
