<?xml version="1.0" encoding="UTF-8" standalone="no"?>
<!DOCTYPE svg PUBLIC "-//W3C//DTD SVG 1.1//EN" "http://www.w3.org/Graphics/SVG/1.1/DTD/svg11.dtd">
<svg width="100%" height="100%" viewBox="0 0 24 24" version="1.1" xmlns="http://www.w3.org/2000/svg" xmlns:xlink="http://www.w3.org/1999/xlink" xml:space="preserve" xmlns:serif="http://www.serif.com/" style="fill-rule:evenodd;clip-rule:evenodd;stroke-linejoin:round;stroke-miterlimit:2;">
    <path d="M13.171,22c2.183,0 3.432,-1.719 4.098,-3.844c0.242,-0.782 0.471,-1.624 1.574,-2.746c2.013,-2.05 2.877,-4.39 2.877,-6.684c0,-3.826 -3.015,-6.726 -6.326,-6.726c-3.924,0 -6.895,3.439 -4.943,8.809l1.74,-0.627c-1.537,-4.395 0.818,-6.149 3.257,-6.195c2.116,-0.041 4.025,1.827 4.286,4.009c0.227,1.904 -0.271,4.206 -2.091,5.953c-1.577,1.512 -1.792,2.514 -2.08,3.506c-0.664,2.287 -1.712,2.639 -2.459,2.59c-1.748,-0.115 -2.509,-1.95 -0.858,-4.035l-1.656,-0.932c-0.765,1.126 -1.119,2.338 -1.126,3.286c-0.014,2.227 1.763,3.636 3.707,3.636Zm0.264,-8.035c1.127,0.595 2.147,-0.263 2.6,-1.313c0.433,-1.001 0.17,-2.147 -0.697,-3.067c-0.597,-0.634 -0.929,-1.392 -0.804,-1.97c0.053,-0.295 0.253,-0.544 0.531,-0.658c0.354,-0.147 0.72,-0.101 1.016,0.063c0.474,0.264 0.851,0.905 0.981,1.672l1.345,-0.227c-0.202,-1.185 -0.824,-2.171 -1.665,-2.636c-0.671,-0.38 -1.482,-0.43 -2.195,-0.134c-0.694,0.285 -1.2,0.899 -1.347,1.634c-0.222,1.031 0.228,2.218 1.147,3.192c-1.873,0.468 -2.102,2.719 -0.912,3.444Zm-7.926,-2.502l0,-1.731l3.738,2.881l-3.738,2.881l0,-1.731l-3.229,0l0,-2.3l3.229,0Z" style="fill:#fff;fill-rule:nonzero;"/>
</svg>
