<svg xmlns="http://www.w3.org/2000/svg" fill-rule="evenodd" stroke-linejoin="round" stroke-miterlimit="2" clip-rule="evenodd" viewBox="0 0 24 24">
  <defs/>
  <path fill="#fff" fill-rule="nonzero" d="M13.171 22c-1.944 0-3.721-1.409-3.707-3.636.007-.948.361-2.16 1.126-3.286l1.656.932c-1.651 2.085-.89 3.92.858 4.035.747.049 1.795-.303 2.459-2.59.288-.992.503-1.994 2.08-3.506 1.82-1.747 2.318-4.049 2.091-5.953-.261-2.182-2.17-4.05-4.286-4.009-2.439.046-4.794 1.8-3.257 6.195l-1.74.627C8.499 5.439 11.47 2 15.394 2c3.311 0 6.326 2.9 6.326 6.726 0 2.294-.864 4.634-2.877 6.684-1.103 1.122-1.332 1.964-1.574 2.746C16.603 20.281 15.354 22 13.171 22zM8.154 2H5.745v20h2.409V2zM2.007 14.881V9.119L5.745 12l-3.738 2.881zm11.428-.916c-1.19-.725-.961-2.976.912-3.444-.919-.974-1.369-2.161-1.147-3.192a2.243 2.243 0 011.347-1.634 2.507 2.507 0 012.195.134c.841.465 1.463 1.451 1.665 2.636l-1.345.227c-.13-.767-.507-1.408-.981-1.672a1.158 1.158 0 00-1.016-.063.88.88 0 00-.531.658c-.125.578.207 1.336.804 1.97.867.92 1.13 2.066.697 3.067-.453 1.05-1.473 1.908-2.6 1.313z"/>
</svg>
