<svg viewBox="0 0 512 512" xmlns="http://www.w3.org/2000/svg" style="fill-rule:evenodd;clip-rule:evenodd;stroke-linejoin:round;stroke-miterlimit:2">
  <path d="M252.74 166.625c.524.867.587 1.752.14 1.973-.447.223-1.235-.301-1.759-1.168-.037-.061-12.873-20.747-16.87-65.049-3.975-44.05-1.241-49.118-1.233-49.133.248-.494.968-.292 1.607.451.64.742.958 1.745.709 2.239-.007.014-2.518 4.634 1.398 48.032 3.893 43.147 15.973 62.598 16.008 62.655Z" style="fill:#000;fill-rule:nonzero"/>
  <path d="M254.231 3.234c19.066 0 34.521 16.312 34.521 36.436s-15.455 36.437-34.521 36.437c-19.066 0-34.522-16.313-34.522-36.437s15.456-36.436 34.522-36.436Z" style="fill:#ffcc29;fill-rule:nonzero"/>
  <path d="M265.558 8.076c12.595 3.645 21.031 13.424 18.843 21.842-2.187 8.417-14.17 12.285-26.763 8.64-12.594-3.646-21.03-13.425-18.843-21.843 2.187-8.417 14.169-12.285 26.763-8.639Z" style="fill:#ffdd21;fill-rule:nonzero"/>
  <path d="M252.794 0c10.188 0 19.584 4.54 26.537 11.88 7.357 7.765 11.909 18.266 11.909 29.658 0 10.548-3.994 20.039-10.451 26.855-6.409 6.764-15.29 10.948-25.122 10.948-10.187 0-19.582-4.541-26.537-11.88-7.357-7.766-11.909-18.266-11.909-29.658 0-10.549 3.995-20.039 10.453-26.855C234.081 4.184 242.962 0 252.794 0Zm25.157 15.931c-5.54-5.847-13.406-9.464-22.284-9.464-9.233 0-17.614 3.973-23.698 10.396-6.037 6.371-9.771 15.1-9.771 24.675 0 8.731 3.178 16.451 8.313 21.872 5.54 5.847 13.406 9.464 22.283 9.464 9.234 0 17.615-3.974 23.699-10.396 6.037-6.371 9.77-15.1 9.77-24.675 0-8.732-3.177-16.451-8.312-21.872Z" style="fill:#000;fill-rule:nonzero"/>
  <path d="M267.026 10.44c5.075 0 9.188 4.342 9.188 9.699 0 5.356-4.113 9.698-9.188 9.698-5.074 0-9.189-4.342-9.189-9.698 0-5.357 4.115-9.699 9.189-9.699Z" style="fill:#fff8af;fill-rule:nonzero"/>
  <path d="M266.668 9.632c2.7 0 5.19 1.201 7.028 3.142a11.395 11.395 0 0 1 3.141 7.831c.007 2.676-.993 5.247-2.776 7.131-1.776 1.871-4.178 2.918-6.675 2.91-2.701 0-5.191-1.202-7.03-3.143a11.394 11.394 0 0 1-3.14-7.831c-.008-2.676.993-5.247 2.776-7.131 1.777-1.871 4.178-2.917 6.676-2.909Zm6.683 4.155c-1.486-1.568-3.592-2.538-5.965-2.538-2.367-.003-4.641.994-6.32 2.771a9.56 9.56 0 0 0-2.607 6.585c0 2.346.857 4.423 2.243 5.885 1.485 1.568 3.592 2.539 5.966 2.539 2.366.002 4.64-.995 6.319-2.772a9.565 9.565 0 0 0 2.606-6.585c0-2.346-.858-4.423-2.242-5.885Z" style="fill:#000;fill-rule:nonzero"/>
  <path d="M232.095 478.322c12.408 45.844 128.738 44.523 81.91-28.272-21.351-33.19-61.724-14.341-61.724-14.341l-20.186 42.613Z" style="fill:#91d8f7;fill-rule:nonzero"/>
  <path d="M232.095 478.322c3.428 12.665 14.793 21.723 28.454 26.675 33.797 5.822 71.122-11.432 41.017-58.229-5.238-8.144-11.623-13.149-18.275-16.074-16.334-1.832-31.01 5.015-31.01 5.015l-20.186 42.613Z" style="fill:#85c5e2;fill-rule:nonzero"/>
  <path d="M234.262 479.924c4.871 15.621 24.618 24.934 44.159 26.57 9.018.754 17.971-.175 25.48-2.914 7.456-2.719 13.462-7.208 16.652-13.582 4.516-9.019 3.296-21.952-7.767-39.149-18.953-29.462-55.406-14.174-58.735-12.699l-19.789 41.774Zm46.308 31.815c-22.075-1.848-44.706-13.683-50.314-33.895-.218-.666-.255-1.286-.057-1.698l20.186-42.612a.798.798 0 0 1 .374-.378c.119-.055 41.606-19.44 64.464 16.094 12.808 19.91 14.261 34.799 9.095 45.119-3.396 6.787-9.699 11.533-17.486 14.373-7.732 2.82-16.959 3.776-26.262 2.997Z" style="fill:#000;fill-rule:nonzero"/>
  <path d="M264.54 463.966s55.184 28.597 117.156-8.71c61.972-37.307 81.21-89.065 41.285-127.374S249.71 388.843 249.71 388.843l14.83 75.123Z" style="fill:#91d8f7;fill-rule:nonzero"/>
  <path d="M264.539 463.965s55.185 28.598 117.157-8.709c11.839-7.127 22.111-14.782 30.717-22.769 16.016-27.078 13.706-55.495-10.682-78.895-29.521-28.327-110.112 18.565-150.111 44.927l12.919 65.446Z" style="fill:#85c5e2;fill-rule:nonzero"/>
  <path d="M266.012 462.441c10.169 4.539 59.277 23.298 114.094-9.702 17.01-10.239 30.786-21.572 40.985-33.414 10.564-12.265 17.264-25.047 19.713-37.691 2.37-12.231.743-24.207-5.245-35.289-3.092-5.722-7.399-11.3-12.975-16.651-37.266-35.757-161.602 54.544-170.691 61.228l14.119 71.519Zm117.274-4.669c-61.105 36.785-115.776 9.896-118.203 8.671l-.06-.028c-1.083-.527-2.178-2.051-2.445-3.405l-14.83-75.121c-.133-.689-.037-1.262.321-1.525.385-.285 134.092-99.843 175.309-60.294 6.403 6.145 11.414 12.668 15.085 19.463 6.959 12.878 8.927 26.39 6.319 39.852-2.528 13.049-9.381 26.169-20.163 38.688-10.288 11.945-24.181 23.375-41.333 33.699Z" style="fill:#000;fill-rule:nonzero"/>
  <path d="M92.659 424.356c-107.363 8.188-118.435-178.577-38.061-113.297 30.126 24.468 58.87 82.987 58.87 82.987l-20.809 30.31Z" style="fill:#91d8f7;fill-rule:nonzero"/>
  <path d="M92.659 424.356c-36.338 2.771-61.629-16.797-76.094-41.36-3.908-35.164 13.599-61.573 52.026-30.363 14.587 11.847 28.848 31.676 39.681 48.981l-15.613 22.742Z" style="fill:#85c5e2;fill-rule:nonzero"/>
  <path d="M93.873 426.987c-42.899 3.258-71.092-24.236-84.658-55.091-7.142-16.245-10.12-33.378-8.978-47.355 1.141-13.949 6.388-24.813 15.699-28.559 9.111-3.665 22.055-.563 38.78 13.021 31.01 25.186 60.216 84.653 60.302 84.825.526 1.062.605 2.031.269 2.517l.003.003-20.808 30.31a.748.748 0 0 1-.609.329ZM12.53 371.908c12.272 27.911 38.284 52.747 78.515 49.843l20.027-29.172c-4.885-9.62-30.28-58.093-56.591-79.463-15.377-12.489-27.244-15.356-35.569-12.007-8.677 3.491-13.574 13.687-14.645 26.796-1.07 13.08 1.67 29.008 8.263 44.003Z" style="fill:#000;fill-rule:nonzero"/>
  <path d="M104.099 383.662S33.677 366.838 7.521 246.758C-18.634 126.678 72.547 49.222 119.038 95.942c46.492 46.721 67.249 232.493 67.249 232.493l-82.188 55.227Z" style="fill:#91d8f7;fill-rule:nonzero"/>
  <path d="M104.099 383.662s-15.901-3.809-35.396-20.677C53.161 346.474 36.566 319.537 27.083 276c-21.399-98.244 53.202-161.616 91.238-123.392 33.815 33.981 50.989 157.863 54.386 184.952l-68.608 46.102Z" style="fill:#85c5e2;fill-rule:nonzero"/>
  <path d="M104.95 386.247c-.208-.053-72.578-17.346-99.377-140.38-9.61-44.115-3.621-82.483 10.158-111.206 8.4-17.51 19.711-31.457 32.152-40.942 12.477-9.512 26.106-14.537 39.095-14.174 11.669.326 22.921 5.003 32.539 14.668 47.844 48.08 68.708 234.898 68.77 235.437.072.63-.079 1.07-.382 1.275l-82.185 55.231c-.209.142-.475.166-.77.091ZM9.471 247.649c24.329 111.695 87.36 131.654 93.321 133.307l81.386-54.688c-1.635-14.067-22.285-185.05-65.618-228.597-8.419-8.46-18.569-12.565-29.298-12.864-12.609-.352-25.885 4.562-38.082 13.861-12.234 9.327-23.371 23.069-31.658 40.344C6.01 167.178.113 204.684 9.471 247.649Z" style="fill:#000;fill-rule:nonzero"/>
  <path d="m99.499 439.939 6.02 13.238-64.716-25.417h54.181l4.515 12.179Z" style="fill:#201e1e;fill-rule:nonzero"/>
  <path d="m101.588 440.049 5.942 13.067c.815 1.79.574 3.268-.537 3.302-.269 0-.535-.061-.782-.177l-64.615-25.377c-1.305-.512-2.718-2.317-3.156-4.031-.374-1.469.089-2.395 1.051-2.307h54.057c1.121-.002 2.675 1.444 3.468 3.229l.15.37 4.422 11.924Zm-.097 8.754L97.488 440l-.173-.425-3.181-8.581H56.147l45.344 17.809Z" style="fill:#000;fill-rule:nonzero"/>
  <path d="M262.97 368.433c18.186-5.592 37.837 7.659 43.891 29.597 2.797 10.134 15.995 75.226-13.547 84.31-30.033 9.234-49.16-52.648-52.31-64.061-6.055-21.937 3.78-44.254 21.966-49.846Z" style="fill:#ffcc29;fill-rule:nonzero"/>
  <path d="M262.969 368.433c.72-.221 1.448-.413 2.181-.576-8.695 9.865-12.213 25.362-7.986 40.676 2.986 10.82 20.333 66.993 47.721 64.93-2.808 4.201-6.577 7.342-11.571 8.877-30.034 9.234-49.16-52.648-52.31-64.061-6.055-21.937 3.78-44.254 21.965-49.846Z" style="fill:#e5aa2d;fill-rule:nonzero"/>
  <path d="M262.837 366.514c10.415-3.203 20.929-1.226 29.507 4.558 8.141 5.49 14.725 14.474 17.825 25.654l.009-.003c.025.071.043.145.052.22 1.444 5.319 5.394 24.075 5.351 42.677-.046 19.547-4.78 39.102-21.855 44.549a7.03 7.03 0 0 1-.538.167c-12.547 3.729-22.875-2.485-31.084-12.538-13.83-16.937-22.404-44.952-24.425-52.278-3.101-11.236-2.115-22.61 1.984-31.915 4.399-9.981 12.472-17.801 23.174-21.091Zm23.748 8.23c-7.307-4.927-15.714-6.781-23.483-4.392-7.483 2.301-13.422 8.437-16.973 16.496-3.849 8.735-4.753 19.489-1.799 30.191 1.999 7.241 10.465 34.923 24.056 51.566 7.27 8.903 15.728 14.598 24.788 11.818l.009-.003c12.234-3.761 15.624-21.185 15.666-38.879.042-18.402-3.855-36.908-5.275-42.131l-.03-.072.009-.004-.017-.062c-2.961-10.729-9.223-19.317-16.951-24.528Z" style="fill:#000;fill-rule:nonzero"/>
  <path d="M186.288 317.621c54.305 0 98.327 41.606 98.327 92.93 0 51.324-44.022 92.93-98.327 92.93-54.306 0-98.328-41.606-98.328-92.93 0-51.324 44.022-92.93 98.328-92.93Z" style="fill:#ffcc29;fill-rule:nonzero"/>
  <path d="M278.865 441.924c-13.616 35.885-49.922 61.557-92.577 61.557-39.946 0-74.326-22.514-89.716-54.847 13.616-35.886 49.922-61.557 92.577-61.557 39.946 0 74.327 22.514 89.716 54.847Z" style="fill:#e5aa2d;fill-rule:nonzero"/>
  <path d="M184.852 314.387c27.723 0 52.985 10.775 71.416 28.194 19.051 18.006 30.836 42.708 30.836 69.838 0 26.167-11.151 49.791-29.18 66.83-17.955 16.969-42.774 27.466-70.2 27.466-27.723 0-52.986-10.775-71.416-28.194-19.052-18.005-30.836-42.708-30.836-69.838 0-26.168 11.15-49.791 29.179-66.83 17.956-16.969 42.775-27.466 70.201-27.466Zm70.512 32.711c-17.156-16.214-41.059-26.243-67.64-26.243-26.878 0-51.224 10.307-68.857 26.971-17.558 16.594-28.419 39.437-28.419 64.593 0 24.194 10.228 45.957 26.764 61.584 17.155 16.215 41.059 26.244 67.64 26.244 26.878 0 51.224-10.307 68.856-26.971 17.559-16.594 28.419-39.437 28.419-64.593 0-24.194-10.228-45.957-26.763-61.585Z" style="fill:#000;fill-rule:nonzero"/>
  <path d="M186.288 317.621c54.305 0 98.327 41.606 98.327 92.93 0 38.072-24.227 70.79-58.904 85.151a91.322 91.322 0 0 1-24.911 3.457c-56.056 0-101.499-50.93-101.499-113.754 0-7.265.614-14.367 1.776-21.254 16.992-27.812 48.787-46.53 85.211-46.53Z" style="fill:#201e1e;fill-rule:nonzero"/>
  <path d="M185.57 316.004c27.437 0 52.36 10.588 70.472 27.706 18.422 17.412 29.818 41.38 29.818 67.775 0 18.946-5.915 36.552-16.089 51.259-10.467 15.131-25.451 27.216-43.136 34.54a.557.557 0 0 1-.126.033 91.858 91.858 0 0 1-24.991 3.459c-57.14 0-103.462-52.072-103.462-116.305a129.011 129.011 0 0 1 1.789-21.451.68.68 0 0 1 .135-.322c8.691-14.198 21.214-26.032 36.228-34.23 14.517-7.926 31.376-12.464 49.362-12.464Zm70.02 29.965c-17.475-16.516-41.717-26.731-68.584-26.731-17.794 0-34.486 4.496-48.872 12.351-14.863 8.116-27.253 19.812-35.85 33.835a125.99 125.99 0 0 0-1.298 10.348 127.012 127.012 0 0 0-.441 10.566c0 61.416 44.564 111.205 99.537 111.205a90.842 90.842 0 0 0 24.696-3.418l.011-.005c17.531-7.259 32.376-19.229 42.739-34.21 10.019-14.482 15.843-31.761 15.843-50.293 0-24.927-10.617-47.426-27.781-63.648Z" style="fill:#000;fill-rule:nonzero"/>
  <path d="M186.288 317.621c54.305 0 98.327 41.606 98.327 92.93 0 18.288-5.593 35.339-15.245 49.717-11.686 5.11-24.198 7.734-36.829 7.725-56.056 0-101.499-50.929-101.499-113.754 0-7.434.644-14.699 1.858-21.735 15.375-9.414 33.705-14.883 53.388-14.883Z" style="fill:#ffcc29;fill-rule:nonzero"/>
  <path d="M278.866 441.926a90.614 90.614 0 0 1-9.496 18.342c-11.686 5.11-24.198 7.734-36.829 7.725-41.607 0-77.36-28.061-93.031-68.215 14.571-8.07 31.531-12.701 49.639-12.701 39.947 0 74.328 22.515 89.717 54.849Z" style="fill:#e5aa2d;fill-rule:nonzero"/>
  <path d="M184.852 314.387c27.723 0 52.985 10.775 71.416 28.194 19.051 18.006 30.836 42.708 30.836 69.838a90.246 90.246 0 0 1-3.957 26.518 91.334 91.334 0 0 1-11.524 24.156.907.907 0 0 1-.501.375 93.452 93.452 0 0 1-18.138 5.801 92.485 92.485 0 0 1-19.006 1.958c-58.225 0-105.424-53.213-105.424-118.855 0-3.779.16-7.495.471-11.14a129.59 129.59 0 0 1 1.419-10.994c.074-.435.273-.724.557-.866a101.594 101.594 0 0 1 25.703-11.162c8.923-2.487 18.37-3.823 28.148-3.823Zm70.512 32.711c-17.156-16.214-41.059-26.243-67.64-26.243-9.572 0-18.821 1.308-27.559 3.743a99.735 99.735 0 0 0-24.907 10.759 125.662 125.662 0 0 0-1.727 20.75c0 60.007 43.685 108.653 97.574 108.653 6.299 0 12.497-.664 18.536-1.93a91.66 91.66 0 0 0 17.623-5.608c4.78-7.165 8.536-14.977 11.072-23.248a86.084 86.084 0 0 0 3.791-25.291c0-24.194-10.228-45.957-26.763-61.585Zm84.767-168.029c-.06.567-.789.646-1.627.176-.838-.469-1.469-1.31-1.409-1.877 1.785-17.193 12.804-30.952 26.702-41.417 21.764-16.391 50.667-24.731 62.093-25.508.651-.046 1.607.511 2.136 1.243.528.733.43 1.366-.22 1.411-11.26.766-39.795 9.023-61.362 25.266-13.702 10.319-24.563 23.851-26.313 40.706Z" style="fill:#000;fill-rule:nonzero"/>
  <path d="M194.453 331.035c5.373 19.172-7.098 39.969-27.858 46.451-9.59 2.995-71.203 17.196-79.932-13.946-8.875-31.662 49.673-52.108 60.473-55.481 20.758-6.482 41.943 3.805 47.317 22.976Z" style="fill:#ffcc29;fill-rule:nonzero"/>
  <path d="M194.691 331.934c4.743 18.918-7.661 39.171-28.096 45.552-9.59 2.995-71.203 17.196-79.932-13.947-1.833-6.538-.785-12.597 2.119-18.127 11.278 27.853 69.752 14.359 79.075 11.447 12.93-4.038 22.645-13.631 26.834-24.925Z" style="fill:#e5aa2d;fill-rule:nonzero"/>
  <path d="M196.334 331.124c2.986 10.902 1.145 21.914-4.26 30.926-5.166 8.616-13.65 15.602-24.229 18.922l.002.009a.813.813 0 0 1-.206.054c-5.031 1.547-22.786 5.797-40.412 5.828-18.521.033-37.071-4.883-42.299-22.888a8.255 8.255 0 0 1-.169-.602c-4.812-17.865 7.951-31.755 23.367-41.589 14.914-9.516 32.264-15.491 37.757-17.21l-.004-.009a.864.864 0 0 1 .211-.055c10.585-3.265 21.307-2.263 30.1 2.007 9.413 4.571 16.819 12.98 20.016 24.154.048.152.09.303.126.453Zm-7.762 24.864c4.636-7.73 6.357-16.606 4.066-24.793l-.004-.012c-2.21-7.888-8.049-14.131-15.699-17.846-8.255-4.008-18.397-4.926-28.481-1.811l-.065.029-.007-.008-.056.018c-5.379 1.679-22.631 7.605-37.415 17.037-14.221 9.072-26.21 21.106-22.45 34.717l.042.15c3.66 12.834 20.147 16.326 36.878 16.297 17.436-.031 34.955-4.225 39.896-5.745l.065-.03.005.008.057-.018c10.153-3.17 18.263-9.815 23.168-17.993Z" style="fill:#000;fill-rule:nonzero"/>
  <path d="M274.433 151.002c72.215-2.617 130.758 59.5 130.758 138.742 0 79.242-58.543 145.602-130.758 148.218-72.215 2.616-130.757-59.501-130.757-138.743 0-79.241 58.542-145.601 130.757-148.217Z" style="fill:#ffcc29;fill-rule:nonzero"/>
  <path d="M404.026 308.952c-8.538 70.488-63.301 126.608-129.593 129.01-72.215 2.616-130.757-59.501-130.757-138.743 0-62.847 36.828-117.585 88.093-138.852-34.373 23.939-57.371 66.099-57.371 113.324 0 71.654 52.936 127.823 118.236 125.457 51.367-1.861 95.075-39.39 111.392-90.196Z" style="fill:#e5aa2d;fill-rule:nonzero"/>
  <path d="M272.12 145.944c1.384-.05 2.873-.075 4.463-.075 35.327 0 67.479 15.342 91.286 40.538 24.364 25.786 39.834 61.287 41.122 100.89.058 1.797.088 3.586.088 5.366.021 38.811-13.863 76.203-38.799 104.494-23.914 27.109-56.982 44.538-93.533 45.862-1.385.05-2.873.075-4.463.075-35.326 0-67.479-15.341-91.287-40.538-24.362-25.785-39.834-61.287-41.122-100.891a168.29 168.29 0 0 1-.088-5.364c-.021-38.811 13.863-76.203 38.799-104.494 23.915-27.109 56.983-44.539 93.534-45.863Zm8.952 10.03c-1.327 0-2.769.029-4.325.085-35.664 1.291-67.975 18.35-91.385 44.886-23.352 26.471-37.797 62.294-37.797 101.193 0 1.703.027 3.382.081 5.034 1.155 35.54 14.521 66.851 35.534 89.091 21.569 22.828 51.336 36.726 84.615 36.726 1.326 0 2.77-.028 4.325-.084 35.663-1.292 67.974-18.352 91.384-44.887 23.354-26.471 37.798-62.294 37.798-101.192 0-1.704-.028-3.384-.081-5.036-1.156-35.539-14.522-66.85-35.535-89.09-21.568-22.827-51.334-36.726-84.614-36.726Z" style="fill:#000;fill-rule:nonzero"/>
  <path d="M303.853 165.493c56.223 8.296 97.488 59.235 92.168 113.776-5.318 54.541-55.208 92.031-111.43 83.735-56.222-8.295-97.487-59.234-92.168-113.776 5.319-54.541 55.208-92.031 111.43-83.735Z" style="fill:#ffdd21;fill-rule:nonzero"/>
  <path d="M275.329 210.87c11.352 0 20.554 10.068 20.554 22.488s-9.202 22.488-20.554 22.488c-11.351 0-20.552-10.068-20.552-22.488s9.201-22.488 20.552-22.488Z" style="fill:#201e1e;fill-rule:nonzero"/>
  <path d="M269.302 214.677c4.287 0 7.763 3.803 7.763 8.493s-3.476 8.493-7.763 8.493-7.762-3.803-7.762-8.493 3.475-8.493 7.762-8.493Z" style="fill:#fefefe;fill-rule:nonzero"/>
  <path d="M343.268 214.204c6.022 0 12.251 11.056 13.911 24.695 1.662 13.638-1.874 24.695-7.896 24.695-6.024 0-12.252-11.057-13.913-24.695-1.661-13.639 1.875-24.695 7.898-24.695Z" style="fill:#201e1e;fill-rule:nonzero"/>
  <path d="M345.782 218.709c2.235-.324 5.079 3.445 6.353 8.418 1.274 4.972.494 9.266-1.741 9.589-2.235.323-5.079-3.445-6.353-8.418-1.275-4.973-.495-9.266 1.741-9.589Z" style="fill:#fefefe;fill-rule:nonzero"/>
  <path d="M239.446 291.942c-.154-1.568.828-2.143 2.196-1.284 1.367.859 2.602 2.828 2.756 4.396.005.05 1.521 17.404 22.404 31.431 21.857 14.681 31.797.345 31.825.305.61-.853 2.102-.273 3.334 1.296 1.233 1.569 1.738 3.534 1.13 4.387-.033.046-11.208 16.168-35.934-.44-25.701-17.263-27.705-40.025-27.711-40.091Z" style="fill:#000;fill-rule:nonzero"/>
  <path d="M432.316 56.958c18.034-6.532 37.669 3.603 43.858 22.637 6.188 19.034-3.414 39.759-21.447 46.291-18.034 6.532-37.669-3.603-43.857-22.637-6.189-19.034 3.413-39.759 21.446-46.291Z" style="fill:#ffcc29;fill-rule:nonzero"/>
  <path d="M430.512 53.782c9.364-3.391 19.243-2.405 27.644 1.931 9.146 4.72 16.628 13.252 20.277 24.476 3.378 10.39 2.534 21.055-1.563 29.897-4.143 8.951-11.466 15.783-20.34 18.977-9.364 3.391-19.242 2.405-27.643-1.932-9.145-4.72-16.628-13.253-20.277-24.475-3.378-10.39-2.533-21.055 1.563-29.898 4.142-8.951 11.466-15.783 20.339-18.976Zm28.705 7.883c-7.471-3.856-16.429-4.67-25.098-1.531-8.782 3.181-15.504 9.804-19.273 17.938-3.665 7.912-4.527 17.128-1.717 25.77a29.812 29.812 0 0 0 14.697 17.337c7.471 3.856 16.428 4.671 25.097 1.531 8.782-3.181 15.505-9.804 19.274-17.938 3.665-7.912 4.527-17.128 1.717-25.77a29.818 29.818 0 0 0-14.697-17.337ZM235.894 186.367c.433 1.669-.215 2.66-1.477 2.221-1.285-.448-2.721-2.212-3.205-3.94l-.067-.258c-.179-.774-.119-1.392.133-1.773.452-1.949 1.832-4.837 4.507-7.668 3.475-3.677 9.146-7.883 17.721-10.9a63.907 63.907 0 0 1 4.017-1.255c.986-.276 2.562.93 3.517 2.694.956 1.763.93 3.418-.056 3.694a61.318 61.318 0 0 0-3.883 1.228c-8.297 2.919-13.734 6.934-17.037 10.43-2.996 3.171-4.254 5.187-4.17 5.527Zm121.694 8.512c.157 1.567-.82 2.145-2.182 1.292-1.363-.852-2.596-2.814-2.755-4.38-.001-.016-.525-5.643-9.803-10.198-1.335-.657-2.68-2.536-3.003-4.197-.323-1.66.498-2.475 1.833-1.818 14.757 7.245 15.906 19.267 15.91 19.301Z" style="fill:#000;fill-rule:nonzero"/>
  <path d="M453.181 59.592c12.595 3.645 21.03 13.425 18.843 21.842-2.187 8.418-14.17 12.285-26.764 8.64-12.593-3.646-21.029-13.425-18.843-21.842 2.188-8.418 14.17-12.286 26.764-8.64Z" style="fill:#ffdd21;fill-rule:nonzero"/>
  <path d="M456.374 63.503c5.075 0 9.189 4.343 9.189 9.699s-4.114 9.698-9.189 9.698c-5.074 0-9.188-4.342-9.188-9.698 0-5.356 4.114-9.699 9.188-9.699Z" style="fill:#fff8af;fill-rule:nonzero"/>
  <path d="M456.016 62.695c2.701 0 5.19 1.201 7.028 3.143a11.391 11.391 0 0 1 3.141 7.83c.008 2.676-.993 5.247-2.776 7.131-1.776 1.871-4.178 2.918-6.675 2.91-2.701 0-5.19-1.202-7.03-3.143a11.39 11.39 0 0 1-3.14-7.831c-.008-2.676.993-5.247 2.777-7.13 1.776-1.871 4.177-2.918 6.675-2.91Zm6.683 4.155c-1.486-1.567-3.592-2.538-5.965-2.538-2.367-.003-4.641.994-6.32 2.771a9.56 9.56 0 0 0-2.606 6.585c0 2.346.857 4.423 2.243 5.885 1.484 1.568 3.591 2.539 5.965 2.539 2.366.003 4.64-.995 6.319-2.772a9.56 9.56 0 0 0 2.606-6.585c0-2.345-.858-4.423-2.242-5.885Z" style="fill:#000;fill-rule:nonzero"/>
</svg>
